<?xml version="1.0" standalone="no"?>
<!DOCTYPE svg PUBLIC "-//W3C//DTD SVG 20010904//EN"
 "http://www.w3.org/TR/2001/REC-SVG-20010904/DTD/svg10.dtd">
<svg version="1.0" xmlns="http://www.w3.org/2000/svg"
 width="700.000000pt" height="700.000000pt" viewBox="0 0 700.000000 700.000000"
 preserveAspectRatio="xMidYMid meet">
<metadata>
Created by potrace 1.11, written by Peter Selinger 2001-2013
</metadata>
<g transform="translate(0.000000,700.000000) scale(0.100000,-0.100000)"
fill="#000000" stroke="none">
<path d="M3480 6902 c-208 -136 -481 -340 -591 -442 -9 -8 -63 -57 -121 -109
-166 -148 -362 -351 -538 -557 -39 -46 -194 -245 -220 -284 -13 -19 -27 -37
-30 -40 -3 -3 -35 -50 -71 -105 -57 -87 -89 -139 -182 -296 -105 -180 -261
-538 -328 -757 -29 -95 -67 -235 -75 -279 -2 -12 -9 -34 -14 -48 -5 -14 -9
-29 -8 -33 1 -4 -4 -32 -10 -62 -12 -56 -17 -85 -26 -155 -3 -22 -11 -74 -16
-115 -31 -221 -33 -579 -4 -815 3 -22 16 -91 30 -154 99 -442 310 -823 633
-1140 171 -167 363 -303 596 -421 49 -24 50 -26 50 -70 1 -70 -3 -79 -35 -75
-33 4 -65 -16 -73 -45 -8 -30 25 -64 64 -66 19 -1 36 -2 40 -3 4 -1 4 -185 0
-213 0 -5 -18 -8 -40 -8 -44 0 -63 -17 -63 -57 0 -34 28 -55 72 -51 33 3 35 1
35 -27 0 -25 19 -49 112 -142 l112 -111 114 1 c64 1 113 -1 111 -5 -2 -3 20
-30 49 -60 73 -73 182 -127 297 -145 57 -10 229 -10 296 0 115 16 225 70 306
150 l58 59 107 1 107 1 108 109 c59 59 109 111 109 115 1 4 2 41 3 82 l1 75
35 5 c51 7 72 23 73 54 0 38 -19 55 -66 58 l-42 3 0 109 0 109 37 2 c70 2 96
57 47 97 -15 13 -31 16 -56 12 -46 -7 -36 8 25 38 80 39 249 138 307 180 559
405 899 990 962 1653 9 96 9 389 0 500 -9 113 -20 198 -42 325 -14 80 -19 104
-29 148 -2 9 -9 40 -16 67 -12 54 -66 245 -80 285 -5 14 -23 66 -40 115 -17
50 -35 99 -40 110 -5 11 -30 70 -56 130 -199 474 -510 957 -872 1357 l-34 37
-56 -46 c-233 -190 -468 -239 -634 -134 -143 91 -221 224 -269 456 -14 68 -18
358 -6 452 15 122 19 149 32 206 10 42 10 57 2 57 -7 0 -73 -40 -147 -88z"/>
</g>
</svg>
